<svg id="visual" viewBox="0 0 900 1200" width="900" height="1200" xmlns="http://www.w3.org/2000/svg" xmlns:xlink="http://www.w3.org/1999/xlink" version="1.1"><path d="M0 157L13.7 197C27.3 237 54.7 317 82 329C109.3 341 136.7 285 163.8 263C191 241 218 253 245.2 287C272.3 321 299.7 377 327 377C354.3 377 381.7 321 409 309C436.3 297 463.7 329 491 325C518.3 321 545.7 281 573 249C600.3 217 627.7 193 654.8 243C682 293 709 417 736.2 447C763.3 477 790.7 413 818 355C845.3 297 872.7 245 886.3 219L900 193L900 0L886.3 0C872.7 0 845.3 0 818 0C790.7 0 763.3 0 736.2 0C709 0 682 0 654.8 0C627.7 0 600.3 0 573 0C545.7 0 518.3 0 491 0C463.7 0 436.3 0 409 0C381.7 0 354.3 0 327 0C299.7 0 272.3 0 245.2 0C218 0 191 0 163.8 0C136.7 0 109.3 0 82 0C54.7 0 27.3 0 13.7 0L0 0Z" fill="#6198ff"></path><path d="M0 613L13.7 633C27.3 653 54.7 693 82 699C109.3 705 136.7 677 163.8 667C191 657 218 665 245.2 671C272.3 677 299.7 681 327 661C354.3 641 381.7 597 409 585C436.3 573 463.7 593 491 603C518.3 613 545.7 613 573 623C600.3 633 627.7 653 654.8 681C682 709 709 745 736.2 737C763.3 729 790.7 677 818 673C845.3 669 872.7 713 886.3 735L900 757L900 191L886.3 217C872.7 243 845.3 295 818 353C790.7 411 763.3 475 736.2 445C709 415 682 291 654.8 241C627.7 191 600.3 215 573 247C545.7 279 518.3 319 491 323C463.7 327 436.3 295 409 307C381.7 319 354.3 375 327 375C299.7 375 272.3 319 245.2 285C218 251 191 239 163.8 261C136.7 283 109.3 339 82 327C54.7 315 27.3 235 13.7 195L0 155Z" fill="#3c80ff"></path><path d="M0 805L13.7 839C27.3 873 54.7 941 82 953C109.3 965 136.7 921 163.8 893C191 865 218 853 245.2 849C272.3 845 299.7 849 327 851C354.3 853 381.7 853 409 847C436.3 841 463.7 829 491 839C518.3 849 545.7 881 573 909C600.3 937 627.7 961 654.8 961C682 961 709 937 736.2 915C763.3 893 790.7 873 818 889C845.3 905 872.7 957 886.3 983L900 1009L900 755L886.3 733C872.7 711 845.3 667 818 671C790.7 675 763.3 727 736.2 735C709 743 682 707 654.8 679C627.7 651 600.3 631 573 621C545.7 611 518.3 611 491 601C463.7 591 436.3 571 409 583C381.7 595 354.3 639 327 659C299.7 679 272.3 675 245.2 669C218 663 191 655 163.8 665C136.7 675 109.3 703 82 697C54.7 691 27.3 651 13.7 631L0 611Z" fill="#0066ff"></path><path d="M0 961L13.7 981C27.3 1001 54.7 1041 82 1047C109.3 1053 136.7 1025 163.8 1017C191 1009 218 1021 245.2 1027C272.3 1033 299.7 1033 327 1035C354.3 1037 381.7 1041 409 1029C436.3 1017 463.7 989 491 981C518.3 973 545.7 985 573 1003C600.3 1021 627.7 1045 654.8 1055C682 1065 709 1061 736.2 1053C763.3 1045 790.7 1033 818 1039C845.3 1045 872.7 1069 886.3 1081L900 1093L900 1007L886.3 981C872.7 955 845.3 903 818 887C790.7 871 763.3 891 736.2 913C709 935 682 959 654.8 959C627.7 959 600.3 935 573 907C545.7 879 518.3 847 491 837C463.7 827 436.3 839 409 845C381.7 851 354.3 851 327 849C299.7 847 272.3 843 245.2 847C218 851 191 863 163.8 891C136.7 919 109.3 963 82 951C54.7 939 27.3 871 13.7 837L0 803Z" fill="#0059dd"></path><path d="M0 1201L13.7 1201C27.3 1201 54.7 1201 82 1201C109.3 1201 136.7 1201 163.8 1201C191 1201 218 1201 245.2 1201C272.3 1201 299.7 1201 327 1201C354.3 1201 381.7 1201 409 1201C436.3 1201 463.7 1201 491 1201C518.3 1201 545.7 1201 573 1201C600.3 1201 627.7 1201 654.8 1201C682 1201 709 1201 736.2 1201C763.3 1201 790.7 1201 818 1201C845.3 1201 872.7 1201 886.3 1201L900 1201L900 1091L886.3 1079C872.7 1067 845.3 1043 818 1037C790.7 1031 763.3 1043 736.2 1051C709 1059 682 1063 654.8 1053C627.7 1043 600.3 1019 573 1001C545.7 983 518.3 971 491 979C463.7 987 436.3 1015 409 1027C381.7 1039 354.3 1035 327 1033C299.7 1031 272.3 1031 245.2 1025C218 1019 191 1007 163.8 1015C136.7 1023 109.3 1051 82 1045C54.7 1039 27.3 999 13.7 979L0 959Z" fill="#004cbb"></path></svg>