<svg id="visual" viewBox="0 0 900 1100" width="900" height="1100" xmlns="http://www.w3.org/2000/svg" xmlns:xlink="http://www.w3.org/1999/xlink" version="1.1"><rect x="0" y="0" width="900" height="1100" fill="#ffedc8"></rect><path d="M0 648L21.5 653C43 658 86 668 128.8 664.8C171.7 661.7 214.3 645.3 257.2 643.2C300 641 343 653 385.8 665.8C428.7 678.7 471.3 692.3 514.2 703.8C557 715.3 600 724.7 642.8 724.7C685.7 724.7 728.3 715.3 771.2 714C814 712.7 857 719.3 878.5 722.7L900 726L900 1101L878.5 1101C857 1101 814 1101 771.2 1101C728.3 1101 685.7 1101 642.8 1101C600 1101 557 1101 514.2 1101C471.3 1101 428.7 1101 385.8 1101C343 1101 300 1101 257.2 1101C214.3 1101 171.7 1101 128.8 1101C86 1101 43 1101 21.5 1101L0 1101Z" fill="#ffe6b4"></path><path d="M0 714L21.5 722.5C43 731 86 748 128.8 743.3C171.7 738.7 214.3 712.3 257.2 720.8C300 729.3 343 772.7 385.8 788.7C428.7 804.7 471.3 793.3 514.2 784.2C557 775 600 768 642.8 752C685.7 736 728.3 711 771.2 689C814 667 857 648 878.5 638.5L900 629L900 1101L878.5 1101C857 1101 814 1101 771.2 1101C728.3 1101 685.7 1101 642.8 1101C600 1101 557 1101 514.2 1101C471.3 1101 428.7 1101 385.8 1101C343 1101 300 1101 257.2 1101C214.3 1101 171.7 1101 128.8 1101C86 1101 43 1101 21.5 1101L0 1101Z" fill="#ffdb96"></path><path d="M0 764L21.5 757.7C43 751.3 86 738.7 128.8 748.2C171.7 757.7 214.3 789.3 257.2 802.8C300 816.3 343 811.7 385.8 802.7C428.7 793.7 471.3 780.3 514.2 785C557 789.7 600 812.3 642.8 827.5C685.7 842.7 728.3 850.3 771.2 850.5C814 850.7 857 843.3 878.5 839.7L900 836L900 1101L878.5 1101C857 1101 814 1101 771.2 1101C728.3 1101 685.7 1101 642.8 1101C600 1101 557 1101 514.2 1101C471.3 1101 428.7 1101 385.8 1101C343 1101 300 1101 257.2 1101C214.3 1101 171.7 1101 128.8 1101C86 1101 43 1101 21.5 1101L0 1101Z" fill="#ffd079"></path><path d="M0 831L21.5 844.8C43 858.7 86 886.3 128.8 880.2C171.7 874 214.3 834 257.2 818.8C300 803.7 343 813.3 385.8 832.3C428.7 851.3 471.3 879.7 514.2 896.8C557 914 600 920 642.8 923C685.7 926 728.3 926 771.2 916.3C814 906.7 857 887.3 878.5 877.7L900 868L900 1101L878.5 1101C857 1101 814 1101 771.2 1101C728.3 1101 685.7 1101 642.8 1101C600 1101 557 1101 514.2 1101C471.3 1101 428.7 1101 385.8 1101C343 1101 300 1101 257.2 1101C214.3 1101 171.7 1101 128.8 1101C86 1101 43 1101 21.5 1101L0 1101Z" fill="#ffc45b"></path><path d="M0 920L21.5 922.8C43 925.7 86 931.3 128.8 927C171.7 922.7 214.3 908.3 257.2 905.5C300 902.7 343 911.3 385.8 916.7C428.7 922 471.3 924 514.2 931.5C557 939 600 952 642.8 947.3C685.7 942.7 728.3 920.3 771.2 912C814 903.7 857 909.3 878.5 912.2L900 915L900 1101L878.5 1101C857 1101 814 1101 771.2 1101C728.3 1101 685.7 1101 642.8 1101C600 1101 557 1101 514.2 1101C471.3 1101 428.7 1101 385.8 1101C343 1101 300 1101 257.2 1101C214.3 1101 171.7 1101 128.8 1101C86 1101 43 1101 21.5 1101L0 1101Z" fill="#ffb739"></path><path d="M0 1033L21.5 1029.7C43 1026.3 86 1019.7 128.8 1018.8C171.7 1018 214.3 1023 257.2 1016.8C300 1010.7 343 993.3 385.8 991.7C428.7 990 471.3 1004 514.2 1006.8C557 1009.7 600 1001.3 642.8 1001.7C685.7 1002 728.3 1011 771.2 1014.5C814 1018 857 1016 878.5 1015L900 1014L900 1101L878.5 1101C857 1101 814 1101 771.2 1101C728.3 1101 685.7 1101 642.8 1101C600 1101 557 1101 514.2 1101C471.3 1101 428.7 1101 385.8 1101C343 1101 300 1101 257.2 1101C214.3 1101 171.7 1101 128.8 1101C86 1101 43 1101 21.5 1101L0 1101Z" fill="#ffaa00"></path></svg>